<?xml version="1.0" standalone="no"?><!DOCTYPE svg PUBLIC "-//W3C//DTD SVG 1.1//EN" "http://www.w3.org/Graphics/SVG/1.1/DTD/svg11.dtd"><svg t="1580969164947" class="icon" viewBox="0 0 1024 1024" version="1.1" xmlns="http://www.w3.org/2000/svg" p-id="4865" xmlns:xlink="http://www.w3.org/1999/xlink" width="20" height="20"><defs><style type="text/css"></style></defs><path d="M896 160a32 32 0 0 1-32 32H160a32 32 0 1 1 0-64h704a32 32 0 0 1 32 32zM896 512a32 32 0 0 1-32 32H160a32 32 0 1 1 0-64h704a32 32 0 0 1 32 32zM896 864a32 32 0 0 1-32 32H160a32 32 0 1 1 0-64h704a32 32 0 0 1 32 32z" p-id="4866"></path></svg>